/* XPM */
static char *_fd7967f84ac42d3936da32d65738c9d0eTAGuOLedO4wvYB[] = {
/* columns rows colors chars-per-pixel */
"7 10 26 1 ",
"  c None",
". c #FFFFFF",
"X c #FFFFFF",
"o c #FFFFFF",
"O c #FFFFFF",
"+ c #FFFFFF",
"@ c #FFFFFF",
"# c #FFFFFF",
"$ c #FFFFFF",
"% c #FFFFFF",
"& c #FFFFFF",
"* c #FFFFFF",
"= c #FFFFFF",
"- c #FFFFFF",
"; c #FFFFFF",
": c #FFFFFF",
"> c #FFFFFF",
", c #FFFFFF",
"< c #FFFFFF",
"1 c #FFFFFF",
"2 c #FFFFFF",
"3 c #FFFFFF",
"4 c #FFFFFF",
"5 c #FFFFFF",
"6 c #FFFFFF",
"7 c #FFFFFF",
/* pixels */
"6,1,,1$",
";;     ",
"%;     ",
";;     ",
";;63317",
"%%#@@@%",
";,     ",
";;     ",
";;     ",
"%@@XXXX"
};
