/* XPM */
static char *_4e70f3e1faf47a7aaa08305fb9b9aa8YnU8gcrN1MvRcv5o[] = {
/* columns rows colors chars-per-pixel */
"8 10 25 1 ",
"  c None",
". c gray1",
"X c gray3",
"o c gray4",
"O c gray5",
"+ c #0E0E0E",
"@ c gray7",
"# c #131313",
"$ c gray8",
"% c #161616",
"& c gray9",
"* c #181818",
"= c #191919",
"- c gray10",
"; c #1B1B1B",
": c #1E1E1E",
"> c gray12",
", c #202020",
"< c gray13",
"1 c #232323",
"2 c gray14",
"3 c #252525",
"4 c gray15",
"5 c gray17",
"6 c #3C3C3C",
/* pixels */
"-X     X",
":1X    &",
"1-1.   &",
": 3&   &",
"3   O  -",
"1   O  -",
"1   :&3&",
"3    @1&",
"1     -@",
"6     55"
};
