/* XPM */
static char *_406241d87124f89c729b294bee1b63bDWksPQaDHZG26USp[] = {
/* columns rows colors chars-per-pixel */
"7 10 31 1 ",
"  c None",
". c gray1",
"X c gray2",
"o c #060606",
"O c #090909",
"+ c gray5",
"@ c #0E0E0E",
"# c #111111",
"$ c #131313",
"% c gray8",
"& c #161616",
"* c #181818",
"= c #191919",
"- c #1B1B1B",
"; c gray11",
": c #202020",
"> c gray13",
", c #232323",
"< c gray15",
"1 c #2D2D2D",
"2 c gray19",
"3 c #313131",
"4 c #343434",
"5 c gray21",
"6 c #373737",
"7 c #3A3A3A",
"8 c gray24",
"9 c #3E3E3E",
"0 c #464646",
"q c #5B5B5B",
"w c #606060",
/* pixels */
" 0755  ",
"=<qw<= ",
"@    . ",
"@,     ",
"2&;,   ",
"   2&# ",
"     &,",
"@    o;",
"oO8 1& ",
" 8=#7  "
};
