/* XPM */
static char *_9c488ae33584ab0c9d2ff16a9746b58RGeXfwIndSkXw5QD[] = {
/* columns rows colors chars-per-pixel */
"12 10 36 1 ",
"  c None",
". c black",
"X c #040404",
"o c gray2",
"O c gray3",
"+ c gray4",
"@ c #0B0B0B",
"# c #0C0C0C",
"$ c gray5",
"% c #0E0E0E",
"& c gray6",
"* c #101010",
"= c #111111",
"- c gray8",
"; c #151515",
": c #191919",
"> c gray10",
", c #1B1B1B",
"< c #1D1D1D",
"1 c #1E1E1E",
"2 c gray12",
"3 c gray13",
"4 c #232323",
"5 c gray14",
"6 c #252525",
"7 c #272727",
"8 c #282828",
"9 c gray16",
"0 c gray17",
"q c gray18",
"w c gray19",
"e c #373737",
"r c gray22",
"t c gray24",
"y c #444444",
"u c gray27",
/* pixels */
",4   y,    1",
"O1   4$    $",
" -   $,q  rO",
" =  r-8.  4 ",
" =t $6 o  $ ",
" .8 o  =  - ",
" .qu=  86r- ",
" 61,6   =6. ",
"  o1    41  ",
"  .O    -o  "
};
